<svg width="36" height="36" viewBox="0 0 36 36" fill="none" xmlns="http://www.w3.org/2000/svg">
<path d="M25.5 18C27.131 17.9997 28.7174 17.4678 30.0189 16.4848C31.3204 15.5018 32.266 14.1214 32.7124 12.5527C33.1588 10.9839 33.0816 9.31246 32.4926 7.79154C31.9036 6.27061 30.8349 4.98314 29.4483 4.12423C28.0618 3.26533 26.4331 2.8818 24.809 3.03179C23.185 3.18177 21.654 3.85708 20.4483 4.95538C19.2425 6.05368 18.4276 7.51509 18.1271 9.11816C17.8266 10.7212 18.0569 12.3786 18.783 13.839C18.9203 14.1042 18.956 14.4103 18.8835 14.7L18.4365 16.3695C18.3922 16.5348 18.3923 16.7088 18.4366 16.8741C18.4809 17.0394 18.5679 17.1901 18.6889 17.3111C18.8099 17.4321 18.9606 17.5191 19.1259 17.5634C19.2912 17.6077 19.4652 17.6078 19.6305 17.5635L21.3 17.1165C21.5897 17.044 21.8958 17.0797 22.161 17.217C23.1982 17.7334 24.3413 18.0015 25.5 18Z" stroke="white" stroke-width="1.5"/>
<path d="M21.834 23.3204L22.65 24.0959L21.834 23.3219V23.3204ZM27.003 31.8809L26.1855 31.1054L27.0015 31.8809H27.003ZM25.014 32.9459L25.125 34.0634L25.014 32.9444V32.9459ZM21.9675 24.8144L22.65 24.0959L21.018 22.5449L20.3355 23.2664L21.9675 24.8144ZM24.8985 23.7914L27.7635 25.4429L28.887 23.4914L26.0205 21.8414L24.8985 23.7914ZM28.317 28.8614L26.187 31.1039L27.8175 32.6549L29.9475 30.4124L28.317 28.8614ZM24.9045 31.8239C22.752 32.0354 17.1345 31.8554 11.0385 25.4384L9.408 26.9864C16.0515 33.9809 22.389 34.3349 25.125 34.0634L24.9045 31.8239ZM11.0385 25.4384C5.2245 19.3169 4.2495 14.1524 4.128 11.8874L1.881 12.0089C2.031 14.7839 3.207 20.4584 9.408 26.9864L11.0385 25.4384ZM13.1025 15.4814L13.5315 15.0284L11.901 13.4789L11.4705 13.9319L13.1025 15.4814ZM13.8705 9.38842L11.979 6.71542L10.1415 8.01442L12.0315 10.6889L13.8705 9.38992V9.38842ZM5.5755 6.13642L3.2235 8.61742L4.8555 10.1669L7.2105 7.68742L5.5785 6.13792L5.5755 6.13642ZM12.2865 14.7059C12.0165 14.4458 11.744 14.1882 11.469 13.9334L11.466 13.9364L11.4615 13.9409C11.4352 13.9687 11.4101 13.9978 11.3865 14.0279C11.2395 14.2225 11.1231 14.4386 11.0415 14.6684C10.8945 15.0809 10.8165 15.6269 10.9155 16.3079C11.1105 17.6459 11.988 19.4444 14.2785 21.8579L15.9105 20.3069C13.7685 18.0524 13.2405 16.6649 13.1415 15.9809C13.0935 15.6509 13.1415 15.4784 13.161 15.4229L13.173 15.3944C13.1573 15.42 13.1387 15.4436 13.1175 15.4649L13.11 15.4724C13.1086 15.474 13.1071 15.4755 13.1055 15.4769L13.104 15.4784C13.104 15.4784 13.101 15.4814 12.2865 14.7059ZM14.2785 21.8579C16.563 24.2639 18.288 25.2074 19.6035 25.4219C20.28 25.5314 20.8275 25.4429 21.2415 25.2794C21.4709 25.1894 21.6841 25.0627 21.873 24.9044C21.8915 24.8879 21.9095 24.8709 21.927 24.8534L21.948 24.8324C21.9531 24.8275 21.9581 24.8225 21.963 24.8174C21.963 24.8144 21.9675 24.8144 21.1515 24.0389C20.3355 23.2649 20.337 23.2634 20.337 23.2619L20.34 23.2604L20.343 23.2559C20.3455 23.2535 20.348 23.251 20.3505 23.2484L20.3655 23.2334C20.3831 23.2164 20.4016 23.2004 20.421 23.1854C20.436 23.1764 20.4345 23.1794 20.415 23.1869C20.385 23.1989 20.25 23.2469 19.965 23.2004C19.362 23.1014 18.06 22.5704 15.9105 20.3069L14.2785 21.8579ZM11.979 6.71542C10.458 4.56442 7.416 4.19992 5.577 6.13792L7.206 7.68742C7.9905 6.86242 9.3735 6.92692 10.1415 8.01442L11.979 6.71542ZM4.128 11.8874C4.095 11.2874 4.3575 10.6889 4.8555 10.1669L3.2235 8.61742C2.4195 9.46342 1.8075 10.6379 1.881 12.0089L4.128 11.8874ZM26.1855 31.1054C25.767 31.5464 25.3305 31.7819 24.9045 31.8239L25.125 34.0634C26.2455 33.9539 27.153 33.3554 27.8175 32.6549L26.1855 31.1069V31.1054ZM13.5315 15.0299C14.985 13.4999 15.0855 11.1104 13.8705 9.38992L12.033 10.6889C12.666 11.5844 12.5685 12.7769 11.901 13.4789L13.5315 15.0299ZM27.7635 25.4429C28.995 26.1524 29.2365 27.8954 28.317 28.8629L29.9475 30.4124C31.905 28.3514 31.335 24.9014 28.887 23.4914L27.7635 25.4429ZM22.65 24.0959C23.2275 23.4869 24.129 23.3504 24.8985 23.7929L26.0205 21.8429C24.372 20.8949 22.3305 21.1679 21.018 22.5479L22.65 24.0959Z" fill="white"/>
</svg>
