<svg width="36" height="36" viewBox="0 0 36 36" fill="none" xmlns="http://www.w3.org/2000/svg">
<path d="M7.71261 16.0712C7.71261 15.2187 8.05126 14.4012 8.65405 13.7984C9.25685 13.1956 10.0744 12.8569 10.9269 12.8569C11.7794 12.8569 12.5969 13.1956 13.1997 13.7984C13.8025 14.4012 14.1412 15.2187 14.1412 16.0712C14.1412 16.9237 13.8025 17.7413 13.1997 18.3441C12.5969 18.9469 11.7794 19.2855 10.9269 19.2855C10.0744 19.2855 9.25685 18.9469 8.65405 18.3441C8.05126 17.7413 7.71261 16.9237 7.71261 16.0712ZM10.9269 14.7855C10.5859 14.7855 10.2589 14.921 10.0178 15.1621C9.77664 15.4032 9.64118 15.7302 9.64118 16.0712C9.64118 16.4122 9.77664 16.7392 10.0178 16.9804C10.2589 17.2215 10.5859 17.3569 10.9269 17.3569C11.2679 17.3569 11.5949 17.2215 11.836 16.9804C12.0772 16.7392 12.2126 16.4122 12.2126 16.0712C12.2126 15.7302 12.0772 15.4032 11.836 15.1621C11.5949 14.921 11.2679 14.7855 10.9269 14.7855ZM10.9269 21.8569C10.0744 21.8569 9.25685 22.1956 8.65405 22.7984C8.05126 23.4012 7.71261 24.2187 7.71261 25.0712C7.71261 25.9237 8.05126 26.7413 8.65405 27.3441C9.25685 27.9469 10.0744 28.2855 10.9269 28.2855C11.7794 28.2855 12.5969 27.9469 13.1997 27.3441C13.8025 26.7413 14.1412 25.9237 14.1412 25.0712C14.1412 24.2187 13.8025 23.4012 13.1997 22.7984C12.5969 22.1956 11.7794 21.8569 10.9269 21.8569ZM9.64118 25.0712C9.64118 24.7302 9.77664 24.4032 10.0178 24.1621C10.2589 23.921 10.5859 23.7855 10.9269 23.7855C11.2679 23.7855 11.5949 23.921 11.836 24.1621C12.0772 24.4032 12.2126 24.7302 12.2126 25.0712C12.2126 25.4122 12.0772 25.7392 11.836 25.9804C11.5949 26.2215 11.2679 26.3569 10.9269 26.3569C10.5859 26.3569 10.2589 26.2215 10.0178 25.9804C9.77664 25.7392 9.64118 25.4122 9.64118 25.0712ZM16.7126 15.7498C16.7126 15.494 16.8142 15.2488 16.995 15.0679C17.1759 14.8871 17.4212 14.7855 17.6769 14.7855H27.3198C27.5755 14.7855 27.8208 14.8871 28.0016 15.0679C28.1824 15.2488 28.284 15.494 28.284 15.7498C28.284 16.0055 28.1824 16.2508 28.0016 16.4316C27.8208 16.6125 27.5755 16.7141 27.3198 16.7141H17.6769C17.4212 16.7141 17.1759 16.6125 16.995 16.4316C16.8142 16.2508 16.7126 16.0055 16.7126 15.7498ZM17.6769 23.7855C17.4212 23.7855 17.1759 23.8871 16.995 24.0679C16.8142 24.2488 16.7126 24.494 16.7126 24.7498C16.7126 25.0055 16.8142 25.2508 16.995 25.4316C17.1759 25.6125 17.4212 25.7141 17.6769 25.7141H27.3198C27.5755 25.7141 27.8208 25.6125 28.0016 25.4316C28.1824 25.2508 28.284 25.0055 28.284 24.7498C28.284 24.494 28.1824 24.2488 28.0016 24.0679C27.8208 23.8871 27.5755 23.7855 27.3198 23.7855H17.6769ZM7.71261 9.32122C7.71261 9.06547 7.81421 8.8202 7.99504 8.63937C8.17588 8.45853 8.42115 8.35693 8.6769 8.35693H27.3198C27.5755 8.35693 27.8208 8.45853 28.0016 8.63937C28.1824 8.8202 28.284 9.06547 28.284 9.32122C28.284 9.57696 28.1824 9.82223 28.0016 10.0031C27.8208 10.1839 27.5755 10.2855 27.3198 10.2855H8.6769C8.42115 10.2855 8.17588 10.1839 7.99504 10.0031C7.81421 9.82223 7.71261 9.57696 7.71261 9.32122ZM8.6769 3.85693C7.39818 3.85693 6.17183 4.3649 5.26763 5.2691C4.36344 6.17329 3.85547 7.39964 3.85547 8.67836V27.3212C3.85547 28.5999 4.36344 29.8263 5.26763 30.7305C6.17183 31.6347 7.39818 32.1426 8.6769 32.1426H27.3198C28.5985 32.1426 29.8248 31.6347 30.729 30.7305C31.6332 29.8263 32.1412 28.5999 32.1412 27.3212V8.67836C32.1412 7.39964 31.6332 6.17329 30.729 5.2691C29.8248 4.3649 28.5985 3.85693 27.3198 3.85693H8.6769ZM5.78404 8.67836C5.78404 7.91113 6.08882 7.17532 6.63134 6.6328C7.17385 6.09029 7.90966 5.78551 8.6769 5.78551H27.3198C28.087 5.78551 28.8228 6.09029 29.3653 6.6328C29.9078 7.17532 30.2126 7.91113 30.2126 8.67836V27.3212C30.2126 28.0885 29.9078 28.8243 29.3653 29.3668C28.8228 29.9093 28.087 30.2141 27.3198 30.2141H8.6769C7.90966 30.2141 7.17385 29.9093 6.63134 29.3668C6.08882 28.8243 5.78404 28.0885 5.78404 27.3212V8.67836Z" fill="white"/>
</svg>
