<svg width="40" height="40" viewBox="0 0 40 40" fill="none" xmlns="http://www.w3.org/2000/svg">
<g clip-path="url(#clip0_89_662)">
<path fill-rule="evenodd" clip-rule="evenodd" d="M20.2708 0C9.52077 0 0.776428 8.97106 0.776428 19.9998C0.776428 24.3737 2.1517 28.43 4.48956 31.7225L2.05984 39.1532L9.55504 36.6963C12.6378 38.7892 16.3166 40 20.2821 40C31.0321 40 39.7764 31.0286 39.7764 20.0002C39.7764 8.97142 31.0321 0.000330607 20.2821 0.000330607L20.2708 0ZM14.8269 10.159C14.4488 9.23023 14.1622 9.19506 13.5894 9.17117C13.3943 9.15955 13.177 9.14795 12.936 9.14795C12.1908 9.14795 11.4116 9.37127 10.9417 9.86504C10.3688 10.4647 8.9476 11.8636 8.9476 14.7327C8.9476 17.6017 10.9876 20.3764 11.2625 20.7647C11.5491 21.1523 15.2396 27.1253 20.9697 29.5596C25.4507 31.4643 26.7804 31.2878 27.8002 31.0644C29.29 30.7353 31.1583 29.606 31.6282 28.2425C32.0982 26.8784 32.0982 25.7143 31.9604 25.4674C31.8229 25.2205 31.4445 25.0798 30.8717 24.7855C30.2988 24.4915 27.5137 23.0806 26.9864 22.8924C26.4706 22.6926 25.978 22.7633 25.5885 23.3278C25.0383 24.1155 24.4998 24.9153 24.0641 25.3971C23.7203 25.7734 23.1585 25.8205 22.6888 25.6204C22.0584 25.3503 20.2937 24.7148 18.116 22.7278C16.4312 21.1878 15.2852 19.2715 14.953 18.6954C14.6205 18.1077 14.9187 17.7663 15.182 17.449C15.4686 17.0844 15.7435 16.8259 16.0301 16.4847C16.3167 16.1439 16.4771 15.9674 16.6605 15.5676C16.8555 15.1796 16.7177 14.7798 16.5803 14.4858C16.4428 14.1918 15.2968 11.3228 14.8269 10.159Z" fill="#0DCF7D"/>
</g>
<defs>
<clipPath id="clip0_89_662">
<rect x="0.776428" width="39" height="40" fill="white"/>
</clipPath>
</defs>
</svg>
