<svg width="102" height="33" viewBox="0 0 102 33" fill="none" xmlns="http://www.w3.org/2000/svg">
<g clip-path="url(#clip0_938_9036)">
<path fill-rule="evenodd" clip-rule="evenodd" d="M75.9842 19.4418L83.5056 12.0638C83.5056 13.2715 84.0463 17.214 83.4866 17.7788C81.5845 20.3948 78.4925 20.3894 75.9842 19.4418ZM87.4751 14.5231C87.4751 13.5679 87.6004 13.1787 87.9612 12.4377C90.4283 7.36944 97.8173 9.60469 97.8173 14.3181C97.8173 17.1185 95.8958 19.5443 92.9073 19.5443C89.8049 19.5443 87.4751 17.6584 87.4751 14.5231ZM73.5816 16.7777C73.1851 15.9674 73.2683 14.8393 73.2683 13.9084C73.2683 11.8668 74.8485 10.2779 76.6108 9.5022C77.7877 8.98438 79.8715 8.71757 81.103 9.29722L73.5816 16.7778V16.7777ZM83.5056 6.63293C79.3371 4.46939 75.3431 5.35483 72.0793 8.43835C71.0584 9.50907 69.821 11.3199 69.821 12.8837L69.7165 7.14499C69.7215 5.24267 70.1406 5.60806 66.1647 5.60806C65.5082 5.60806 65.7447 6.48848 65.7492 7.03766C65.7691 9.59076 65.8505 15.4893 65.7483 17.5985C65.614 20.3695 62.9149 20.2446 62.0414 19.0801C61.7295 18.6642 61.5685 17.972 61.5685 17.2899V5.71055H57.8078V17.6997C57.8078 18.3229 57.6297 18.814 57.315 19.1637C56.2557 20.3424 54.3912 19.9273 53.8957 18.6679C53.3762 17.3475 53.7275 9.09614 53.7333 7.0425C53.7392 5.28183 54.2158 5.60788 50.286 5.60788C50.0454 5.60788 49.9727 5.67915 49.9727 5.91536V18.3144C49.9727 19.864 50.7159 20.9605 51.7056 21.943C52.4964 22.7278 54.0661 23.5405 55.1959 23.5405C57.2965 23.5405 58.0908 23.3649 59.6877 22.0034L61.1833 22.9957C63.6609 24.2029 66.7 23.4298 68.3457 21.2737C68.7214 20.7819 69.2228 19.8118 69.4181 19.149C69.7256 18.1077 69.7161 17.5216 69.7161 16.1624H69.821C69.821 16.8916 70.3088 18.0678 70.6108 18.5643C71.8356 20.5795 73.5536 22.3964 75.9602 23.0513C78.6788 23.791 81.462 23.6439 83.8831 22.0665C84.6142 21.5903 85.4329 20.7436 85.6992 20.5687C86.3702 21.0095 86.6256 21.6939 88.3798 22.5503C91.8715 24.2549 95.686 23.7976 98.684 21.3168C107.017 14.421 98.3019 1.42262 87.4751 7.0425V0.48427L83.61 0.279297C83.3184 1.5071 83.5056 5.04997 83.5056 6.63258V6.63293Z" fill="#202B8F"/>
<path fill-rule="evenodd" clip-rule="evenodd" d="M20.8283 15.3424C20.8283 18.4671 23.3996 21.4312 26.0496 22.7222C28.3376 23.8369 31.6699 23.7881 33.9234 22.6542C36.8948 21.1591 39.1095 18.3308 39.1095 14.9324V5.91489C39.1095 5.67873 39.0369 5.60741 38.7961 5.60741C34.8056 5.60741 35.1162 5.3356 35.1337 6.42118C35.1599 8.04223 35.215 14.0464 35.1136 14.8043C34.7481 17.5414 33.0221 19.4353 30.2665 19.5687C29.1155 19.6244 27.4336 19.1713 26.7011 18.4963C24.2324 16.2204 24.9023 14.7321 24.9023 10.731C24.9023 9.12555 24.9023 7.52011 24.9023 5.91466C24.6759 5.76596 24.5545 5.60724 24.1711 5.60724H20.8281V15.3422L20.8283 15.3424Z" fill="#202B8F"/>
<path fill-rule="evenodd" clip-rule="evenodd" d="M39.8403 3.55886V23.2334C39.8403 23.5191 40.2395 23.4384 40.6758 23.4384H43.9138V0.484619L39.8398 3.55867L39.8403 3.55886Z" fill="#202B8F"/>
<path fill-rule="evenodd" clip-rule="evenodd" d="M45.27 3.76385V23.1311C45.2347 23.7909 47.3294 23.4087 48.4095 23.4363C49.5606 23.4658 49.3264 23.8347 49.3435 21.0817V0.382324L45.2695 3.76385H45.27Z" fill="#202B8F"/>
</g>
<defs>
<clipPath id="clip0_938_9036">
<rect width="107.603" height="32.375" fill="white" transform="translate(-5.60156)"/>
</clipPath>
</defs>
</svg>
